<svg xmlns="http://www.w3.org/2000/svg" width="2100" height="405" viewBox="0 0 2100 405" role="img" aria-label="Classic Outlook Task Map branded title banner with an inbox decision-flow line icon on a Midnight background with Bluejay accent. The banner is a visual header only; keep the document title as live text outside the image.">
  <title>Classic Outlook Task Map</title><desc>Classic Outlook Task Map branded title banner with an inbox decision-flow line icon on a Midnight background with Bluejay accent. The banner is a visual header only; keep the document title as live text outside the image.</desc>
  <rect width="2100" height="405" fill="#002855"/>
  <rect x="0" y="0" width="22" height="405" fill="#41B6E6"/>
  <circle cx="1960" cy="80" r="52" fill="none" stroke="#41B6E6" stroke-width="10" opacity="0.32"/>
  <g id="icon-inbox-decision-flow" fill="none" stroke-linecap="round" stroke-linejoin="round">
      <rect x="1590" y="86" width="360" height="190" rx="22" stroke="#FFFFFF" stroke-width="8" opacity="0.92"/>
      <path d="M1625 124h290l-58 66H1683z" stroke="#41B6E6" stroke-width="8"/>
      <path d="M1770 86v-42" stroke="#41B6E6" stroke-width="8"/>
      <circle cx="1770" cy="32" r="36" stroke="#41B6E6" stroke-width="8"/>
      <path d="M1755 32l12 12 24-28" stroke="#FFFFFF" stroke-width="7"/>
      <path d="M1770 276v45M1770 321h-105M1770 321h105" stroke="#41B6E6" stroke-width="8"/>
      <rect x="1584" y="343" width="150" height="58" rx="18" stroke="#FFFFFF" stroke-width="7" opacity="0.9"/>
      <rect x="1806" y="343" width="150" height="58" rx="18" stroke="#FFFFFF" stroke-width="7" opacity="0.9"/>
    </g>
  <text x="110" y="168" fill="#FFFFFF" font-family="Arial, Helvetica, sans-serif" font-size="72" font-weight="700">Classic Outlook Task Map</text>
  <text x="114" y="244" fill="#E6E7E8" font-family="Arial, Helvetica, sans-serif" font-size="34" font-weight="400">Choose the right Outlook action for common inbox work.</text>
  <line x1="114" y1="285" x2="610" y2="285" stroke="#41B6E6" stroke-width="8" stroke-linecap="round"/>
  <text x="114" y="334" fill="#41B6E6" font-family="Arial, Helvetica, sans-serif" font-size="24" letter-spacing="3">PRODUCTION DRAFT</text>
</svg>