<svg xmlns="http://www.w3.org/2000/svg" width="900" height="520" role="img" aria-label="Shared address selected in From. Synthetic training mockup. Not version evidence."><title>Shared address selected in From</title><metadata>Not version evidence</metadata><rect width="900" height="520" fill="#FFFFFF"/><rect x="22" y="22" width="856" height="44" fill="#002855"/><text x="38" y="51" fill="#FFFFFF" font-family="Arial" font-size="22">Shared address selected in From</text><rect x="22" y="80" width="210" height="355" fill="#F7F7F7" stroke="#A7A9AC"/><rect x="248" y="80" width="610" height="355" fill="#FFFFFF" stroke="#A7A9AC"/><text x="42" y="118" font-family="Arial" font-size="18" fill="#333132">alex.employee@example.com</text><text x="42" y="156" font-family="Arial" font-size="18" fill="#333132">team.service@example.com</text><text x="62" y="190" font-family="Arial" font-size="17" fill="#4D4D4F">Inbox</text><text x="62" y="220" font-family="Arial" font-size="17" fill="#4D4D4F">Sent Items</text><text x="280" y="125" font-family="Arial" font-size="18" fill="#333132">From: team.service@example.com</text><text x="280" y="165" font-family="Arial" font-size="18" fill="#333132">To: customer@example.com</text><text x="280" y="205" font-family="Arial" font-size="18" fill="#333132">Subject: Follow-up</text><text x="280" y="275" font-family="Arial" font-size="18" fill="#4D4D4F">Fictional training message text.</text><rect x="520" y="300" width="250" height="34" rx="6" fill="#41B6E6"/><text x="534" y="323" fill="#FFFFFF" font-family="Arial" font-size="17">From field</text><rect x="520" y="345" width="250" height="34" rx="6" fill="#41B6E6"/><text x="534" y="368" fill="#FFFFFF" font-family="Arial" font-size="17">Shared address</text><rect x="520" y="390" width="250" height="34" rx="6" fill="#41B6E6"/><text x="534" y="413" fill="#FFFFFF" font-family="Arial" font-size="17">Confirm before sending</text><rect x="22" y="455" width="856" height="34" fill="#002855"/><text x="36" y="478" fill="#FFFFFF" font-family="Arial" font-size="15">Synthetic training mockup — replace with approved capture before publication | Not version evidence</text></svg>