<svg xmlns="http://www.w3.org/2000/svg" width="1000" height="560" role="img" aria-label="Classic Outlook draft with expected Copilot area. Synthetic training mockup. Not version evidence."><title>Classic Outlook draft with Copilot area</title><metadata>Not version evidence</metadata><rect width="1000" height="560" fill="#FFFFFF"/><rect x="28" y="24" width="944" height="46" fill="#002855"/><text x="44" y="55" fill="#FFFFFF" font-family="Arial" font-size="24">Supported primary-mailbox draft</text><rect x="28" y="88" width="944" height="58" fill="#E6E7E8" stroke="#A7A9AC"/><text x="50" y="124" font-family="Arial" font-size="20" fill="#333132">Message toolbar: Send | Attach | Copilot ▼ | Options</text><rect x="270" y="102" width="120" height="30" rx="6" fill="#005EB8"/><text x="292" y="123" fill="#FFFFFF" font-family="Arial" font-size="17">Copilot ▼</text><rect x="270" y="142" width="210" height="94" fill="#FFFFFF" stroke="#333132"/><text x="286" y="172" font-family="Arial" font-size="18" fill="#333132">Draft with Copilot</text><text x="286" y="205" font-family="Arial" font-size="18" fill="#333132">Coaching by Copilot</text><rect x="28" y="164" width="944" height="300" fill="#FFFFFF" stroke="#A7A9AC"/><text x="54" y="205" font-family="Arial" font-size="19" fill="#333132">To: producer@example.com</text><text x="54" y="245" font-family="Arial" font-size="19" fill="#333132">Subject: Follow-up details</text><text x="54" y="305" font-family="Arial" font-size="19" fill="#4D4D4F">Draft message text appears here after review.</text><rect x="590" y="102" width="260" height="36" rx="6" fill="#41B6E6"/><text x="606" y="126" fill="#FFFFFF" font-family="Arial" font-size="18">Open Copilot menu</text><rect x="590" y="156" width="260" height="36" rx="6" fill="#41B6E6"/><text x="606" y="180" fill="#FFFFFF" font-family="Arial" font-size="18">Choose draft or coaching</text><rect x="590" y="210" width="260" height="36" rx="6" fill="#41B6E6"/><text x="606" y="234" fill="#FFFFFF" font-family="Arial" font-size="18">Review before sending</text><rect x="28" y="488" width="944" height="38" fill="#002855"/><text x="44" y="513" fill="#FFFFFF" font-family="Arial" font-size="16">Synthetic training mockup — replace with approved capture before publication | Not version evidence</text></svg>